<?xml version="1.0" encoding="UTF-8" standalone="no"?>
<!-- Uploaded to: SVG Repo, www.svgrepo.com, Generator: SVG Repo Mixer Tools -->
<svg width="800px" height="800px" viewBox="0 0 64 64" version="1.1" xmlns="http://www.w3.org/2000/svg" xmlns:xlink="http://www.w3.org/1999/xlink">
    
    <title>cha-translate-2</title>
    <desc>Created with Sketch.</desc>
    <defs>

</defs>
    <g id="General" stroke="none" stroke-width="1" fill="none" fill-rule="evenodd">
        <g id="SLICES-64px" transform="translate(-270.000000, -100.000000)">

</g>
        <g id="ICONS" transform="translate(-265.000000, -95.000000)" stroke-linecap="round" stroke="#414547" stroke-width="2" stroke-linejoin="round">
            <g id="cha-translate-2" transform="translate(270.000000, 104.000000)">
                <polyline id="Stroke-167" points="0 46 10 26 20 46">

</polyline>
                <path d="M4,38 L16,38" id="Stroke-169">

</path>
                <path d="M38,0 L42,0" id="Stroke-171">

</path>
                <path d="M28,4 L52,4" id="Stroke-173">

</path>
                <path d="M30,20 C39.813,20 46,10.062 46,4" id="Stroke-175">

</path>
                <path d="M50,20 C42.156,20 36.63,13.651 34.727,8.006" id="Stroke-177">

</path>
                <path d="M22,4 C15.373,4 10,9.373 10,16 L10,20" id="Stroke-179">

</path>
                <path d="M28,42 C34.627,42 40,36.627 40,30 L40,26" id="Stroke-181">

</path>
                <polyline id="Stroke-183" points="36 30 40 26 44 30">

</polyline>
                <polyline id="Stroke-185" points="6 16 10 20 14 16">

</polyline>
            </g>
        </g>
    </g>
</svg>