<?xml version="1.0" encoding="UTF-8" standalone="no"?>
<!-- Uploaded to: SVG Repo, www.svgrepo.com, Generator: SVG Repo Mixer Tools -->
<svg width="800px" height="800px" viewBox="0 0 64 64" version="1.1" xmlns="http://www.w3.org/2000/svg" xmlns:xlink="http://www.w3.org/1999/xlink">
    
    <title>cel-cake-wedding</title>
    <desc>Created with Sketch.</desc>
    <defs>

</defs>
    <g id="General" stroke="none" stroke-width="1" fill="none" fill-rule="evenodd">
        <g id="SLICES-64px" transform="translate(-720.000000, 0.000000)">

</g>
        <g id="ICONS" transform="translate(-715.000000, 5.000000)">
            <g id="cel-balloons" transform="translate(720.000000, 2.000000)">
                <path d="M36,14 C36,22.837 30.627,32 24,32 C17.373,32 12,22.837 12,14 C12,5.163 17.373,0 24,0 C30.627,0 36,5.163 36,14" id="Fill-261" fill="#EEC261">

</path>
                <path d="M12,14 C12,9.107 13.652,5.347 16.247,2.959 L16.246,2.944 C11.52,0.978 6.757,2.008 3.407,5.357 C-1.279,10.045 -1.427,17.494 4.821,23.742 C8.816,27.737 14.458,30.273 19.232,30.359 L19.231,30.354 C14.978,27.326 12,20.576 12,14" id="Fill-263" fill="#87D6CD">

</path>
                <path d="M46.5928,5.3574 C42.9218,1.6864 37.5538,0.8004 32.3978,3.5934 L32.3968,3.5984 C34.6178,5.9964 35.9998,9.5244 35.9998,14.0004 C35.9998,20.5034 33.0848,27.1694 28.9068,30.2444 L28.9048,30.2594 C34.0038,30.9254 40.6498,28.2714 45.1788,23.7424 C51.4268,17.4944 51.2798,10.0444 46.5928,5.3574" id="Fill-265" fill="#D3D873">

</path>
                <path d="M28,36 C28,33.791 26.209,32 24,32 C21.791,32 20,33.791 20,36 L28,36 Z" id="Fill-267" fill="#EEC261">

</path>
                <path d="M36,14 C36,22.837 30.627,32 24,32 C17.373,32 12,22.837 12,14 C12,5.163 17.373,0 24,0 C30.627,0 36,5.163 36,14 Z" id="Stroke-269" stroke="#414547" stroke-width="2" stroke-linecap="round" stroke-linejoin="round">

</path>
                <path d="M19.2319,30.3594 C14.4579,30.2734 8.8159,27.7374 4.8209,23.7424 C-1.4271,17.4944 -1.2791,10.0454 3.4069,5.3574 C6.7569,2.0074 11.5199,0.9774 16.2459,2.9444" id="Stroke-271" stroke="#414547" stroke-width="2" stroke-linecap="round" stroke-linejoin="round">

</path>
                <path d="M28.9048,30.2598 C34.0038,30.9258 40.6498,28.2718 45.1788,23.7428 C51.4268,17.4938 51.2798,10.0438 46.5928,5.3588 C42.9218,1.6868 37.5538,0.8008 32.3978,3.5928" id="Stroke-273" stroke="#414547" stroke-width="2" stroke-linecap="round" stroke-linejoin="round">

</path>
                <path d="M16,14 C16,7.373 19.582,4 24,4" id="Stroke-275" stroke="#414547" stroke-width="2" stroke-linecap="round" stroke-linejoin="round">

</path>
                <path d="M7.5391,20.6895 C2.9211,16.0715 3.0661,11.2245 6.1451,8.1455" id="Stroke-277" stroke="#414547" stroke-width="2" stroke-linecap="round" stroke-linejoin="round">

</path>
                <path d="M28,36 C28,33.791 26.209,32 24,32 C21.791,32 20,33.791 20,36 L28,36 Z" id="Stroke-279" stroke="#414547" stroke-width="2" stroke-linecap="round" stroke-linejoin="round">

</path>
                <path d="M24,36 C24,36 20,38 20,41 C20,44 26,45.625 26,48 C26,50.375 22,52 22,52" id="Stroke-281" stroke="#414547" stroke-width="2" stroke-linecap="round" stroke-linejoin="round">

</path>
            </g>
        </g>
    </g>
</svg>