<?xml version="1.0" encoding="UTF-8" standalone="no"?>
<!-- Uploaded to: SVG Repo, www.svgrepo.com, Generator: SVG Repo Mixer Tools -->
<svg width="800px" height="800px" viewBox="0 0 64 64" version="1.1" xmlns="http://www.w3.org/2000/svg" xmlns:xlink="http://www.w3.org/1999/xlink">
    
    <title>cel-balloons</title>
    <desc>Created with Sketch.</desc>
    <defs>

</defs>
    <g id="General" stroke="none" stroke-width="1" fill="none" fill-rule="evenodd">
        <g id="SLICES-64px" transform="translate(-810.000000, 0.000000)">

</g>
        <g id="ICONS" transform="translate(-805.000000, 5.000000)">
            <g id="cel-cake-wedding" transform="translate(810.000000, 0.000000)">
                <path d="M43,46 C40.238,46 38,43.313 38,40 C38,43.313 35.313,46 32,46 C28.687,46 26,43.313 26,40 C26,43.313 23.313,46 20,46 C16.687,46 14,43.313 14,40 C14,43.313 11.762,46 9,46 C6.238,46 4,43.313 4,40 L4,52 L48,52 L48,40 C48,43.313 45.762,46 43,46" id="Fill-373" fill="#F6A563">

</path>
                <path d="M32,16 C30.896,16 30,15.104 30,14 C30,15.104 29.104,16 28,16 C26.896,16 26,15.104 26,14 C26,15.104 25.104,16 24,16 C22.896,16 22,15.104 22,14 C22,15.104 21.104,16 20,16 C18.896,16 18,15.104 18,14 L18,20 L34,20 L34,14 C34,15.104 33.104,16 32,16" id="Fill-375" fill="#F3E777">

</path>
                <path d="M36.5,28 C34.567,28 33,26.434 33,24.5 C33,26.434 31.433,28 29.5,28 C27.567,28 26,26.434 26,24.5 C26,26.434 24.433,28 22.5,28 C20.567,28 19,26.434 19,24.5 C19,26.434 17.433,28 15.5,28 C13.567,28 12,26.434 12,24.5 L12,34 L40,34 L40,24.5 C40,26.434 38.433,28 36.5,28" id="Fill-377" fill="#EEC261">

</path>
                <path d="M44,34 L8,34 C5.791,34 4,35.791 4,38 L4,40 C4,43.313 6.238,46 9,46 C11.762,46 14,43.313 14,40 C14,43.313 16.687,46 20,46 C23.313,46 26,43.313 26,40 C26,43.313 28.687,46 32,46 C35.313,46 38,43.313 38,40 C38,43.313 40.238,46 43,46 C45.762,46 48,43.313 48,40 L48,38 C48,35.791 46.209,34 44,34" id="Fill-379" fill="#E9EFFA">

</path>
                <path d="M30,10 L22,10 C19.791,10 18,11.791 18,14 C18,15.104 18.896,16 20,16 C21.104,16 22,15.104 22,14 C22,15.104 22.896,16 24,16 C25.104,16 26,15.104 26,14 C26,15.104 26.896,16 28,16 C29.104,16 30,15.104 30,14 C30,15.104 30.896,16 32,16 C33.104,16 34,15.104 34,14 C34,11.791 32.209,10 30,10" id="Fill-381" fill="#E9EFFA">

</path>
                <path d="M36,20 L16,20 C13.791,20 12,21.791 12,24 L12,24.5 C12,26.434 13.567,28 15.5,28 C17.433,28 19,26.434 19,24.5 C19,26.434 20.567,28 22.5,28 C24.433,28 26,26.434 26,24.5 C26,26.434 27.567,28 29.5,28 C31.433,28 33,26.434 33,24.5 C33,26.434 34.567,28 36.5,28 C38.433,28 40,26.434 40,24.5 L40,24 C40,21.791 38.209,20 36,20" id="Fill-383" fill="#E9EFFA">

</path>
                <path d="M29.3691,4.1563 C30.2101,3.2063 30.2101,1.6643 29.3691,0.7133 C28.5281,-0.2387 27.1641,-0.2377 26.3231,0.7133 L26.0001,1.0443 L25.6771,0.7133 C24.8361,-0.2377 23.4721,-0.2377 22.6311,0.7133 C21.7901,1.6643 21.7901,3.2063 22.6311,4.1563 L26.0001,8.0003 L29.3691,4.1563 Z" id="Fill-385" fill="#F16963">

</path>
                <path d="M29.3691,4.1563 C30.2101,3.2063 30.2101,1.6643 29.3691,0.7133 C28.5281,-0.2387 27.1641,-0.2377 26.3231,0.7133 L26.0001,1.0443 L25.6771,0.7133 C24.8361,-0.2377 23.4721,-0.2377 22.6311,0.7133 C21.7901,1.6643 21.7901,3.2063 22.6311,4.1563 L26.0001,8.0003 L29.3691,4.1563 Z" id="Stroke-387" stroke="#414547" stroke-width="2" stroke-linecap="round" stroke-linejoin="round">

</path>
                <path d="M0,52 L52,52" id="Stroke-389" stroke="#414547" stroke-width="2" stroke-linecap="round" stroke-linejoin="round">

</path>
                <path d="M4,52 L4,38 C4,35.791 5.791,34 8,34 L44,34 C46.209,34 48,35.791 48,38 L48,52" id="Stroke-391" stroke="#414547" stroke-width="2" stroke-linecap="round" stroke-linejoin="round">

</path>
                <path d="M12,34 L12,24 C12,21.791 13.791,20 16,20 L36,20 C38.209,20 40,21.791 40,24 L40,34" id="Stroke-393" stroke="#414547" stroke-width="2" stroke-linecap="round" stroke-linejoin="round">

</path>
                <path d="M18,20 L18,14 C18,11.791 19.791,10 22,10 L30,10 C32.209,10 34,11.791 34,14 L34,20" id="Stroke-395" stroke="#414547" stroke-width="2" stroke-linecap="round" stroke-linejoin="round">

</path>
                <path d="M48,40 C48,43.313 45.762,46 43,46 C40.238,46 38,43.313 38,40 C38,43.313 35.313,46 32,46 C28.687,46 26,43.313 26,40 C26,43.313 23.313,46 20,46 C16.687,46 14,43.313 14,40 C14,43.313 11.762,46 9,46 C6.238,46 4,43.313 4,40" id="Stroke-397" stroke="#414547" stroke-width="2" stroke-linecap="round" stroke-linejoin="round">

</path>
                <path d="M18,14 C18,15.104 18.896,16 20,16 C21.104,16 22,15.104 22,14 C22,15.104 22.896,16 24,16 C25.104,16 26,15.104 26,14 C26,15.104 26.896,16 28,16 C29.104,16 30,15.104 30,14 C30,15.104 30.896,16 32,16 C33.104,16 34,15.104 34,14" id="Stroke-399" stroke="#414547" stroke-width="2" stroke-linecap="round" stroke-linejoin="round">

</path>
                <path d="M40,24.5 C40,26.433 38.433,28 36.5,28 C34.567,28 33,26.433 33,24.5 C33,26.433 31.433,28 29.5,28 C27.567,28 26,26.433 26,24.5 C26,26.433 24.433,28 22.5,28 C20.567,28 19,26.433 19,24.5 C19,26.433 17.433,28 15.5,28 C13.567,28 12,26.433 12,24.5" id="Stroke-401" stroke="#414547" stroke-width="2" stroke-linecap="round" stroke-linejoin="round">

</path>
            </g>
        </g>
    </g>
</svg>