<?xml version="1.0" encoding="utf-8"?>
<!-- Uploaded to: SVG Repo, www.svgrepo.com, Generator: SVG Repo Mixer Tools -->
<svg width="800px" height="800px" viewBox="0 0 1024 1024" class="icon"  version="1.1" xmlns="http://www.w3.org/2000/svg"><path d="M763.863713 615.133772m-84.419058 0a84.419058 84.419058 0 1 0 168.838116 0 84.419058 84.419058 0 1 0-168.838116 0Z" fill="#FAE1DC" /><path d="M251.846074 615.133772m-84.419058 0a84.419058 84.419058 0 1 0 168.838116 0 84.419058 84.419058 0 1 0-168.838116 0Z" fill="#FAE1DC" /><path d="M515.298446 590.933407m-282.996107 0a282.996107 282.996107 0 1 0 565.992214 0 282.996107 282.996107 0 1 0-565.992214 0Z" fill="#FAE1DC" /><path d="M256.220484 364.839908l272.448135-283.137217 272.448134 283.137217z" fill="#E95B48" /><path d="M853.115789 456.702518H199.741206c-1.904985 0-3.457195-1.55221-3.457195-3.457195V329.66824c0-1.904985 1.55221-3.457195 3.457195-3.457195h653.374583c1.904985 0 3.457195 1.55221 3.457195 3.457195v123.612361c0 1.904985-1.55221 3.421918-3.457195 3.421917z" fill="#DDDDDD" /><path d="M528.668619 89.781238m-63.570056 0a63.570055 63.570055 0 1 0 127.140111 0 63.570055 63.570055 0 1 0-127.140111 0Z" fill="#DDDDDD" /><path d="M535.371344 799.352878m-198.400662 0a198.400661 198.400661 0 1 0 396.801323 0 198.400661 198.400661 0 1 0-396.801323 0Z" fill="#DDDDDD" /><path d="M535.371344 639.616357m-63.570056 0a63.570055 63.570055 0 1 0 127.140111 0 63.570055 63.570055 0 1 0-127.140111 0Z" fill="#E95B48" /></svg>