<?xml version="1.0" encoding="utf-8"?>
<!-- Uploaded to: SVG Repo, www.svgrepo.com, Generator: SVG Repo Mixer Tools -->
<svg width="800px" height="800px" viewBox="0 0 1024 1024" class="icon"  version="1.1" xmlns="http://www.w3.org/2000/svg"><path d="M802.9 137.9L13.2 927.7" fill="#FCD170" /><path d="M13.2 937.7c-2.6 0-5.1-1-7.1-2.9-3.9-3.9-3.9-10.2 0-14.1L795.8 131c3.9-3.9 10.2-3.9 14.1 0 3.9 3.9 3.9 10.2 0 14.1L20.3 934.8c-2 1.9-4.5 2.9-7.1 2.9z" fill="" /><path d="M281.7 510c50.9 50.9 42.9 100.7 7.2 136.4s-85.4 43.7-136.4-7.2C101.6 588.2 84 441.5 84 441.5s146.7 17.6 197.7 68.5z" fill="#60C13D" /><path d="M226.1 685.3c-27.6 0-54.8-13.1-80.7-39C92.6 593.5 74.7 448.9 74 442.7c-0.4-3 0.7-6.1 2.9-8.3 2.2-2.2 5.2-3.2 8.3-2.9 6.1 0.7 150.8 18.6 203.6 71.4 26 26 39.1 53.3 39 81-0.1 24.8-11.1 48.8-31.8 69.5-20.7 20.7-44.7 31.7-69.5 31.8-0.1 0.1-0.2 0.1-0.4 0.1z m-130.3-232c5.6 36.4 24.5 139.5 63.8 178.8 22 22 44.4 33.2 66.5 33.2h0.3c19.4-0.1 38.6-9 55.4-25.9 16.9-16.9 25.8-36 25.9-55.4 0.1-22.2-11.1-44.7-33.2-66.8-39.2-39.4-142.3-58.3-178.7-63.9z" fill="" /><path d="M288.9 656.4c-2.6 0-5.1-1-7.1-2.9l-78.6-78.6c-3.9-3.9-3.9-10.2 0-14.1 3.9-3.9 10.2-3.9 14.1 0l78.6 78.6c3.9 3.9 3.9 10.2 0 14.1-1.9 1.9-4.4 2.9-7 2.9z" fill="" /><path d="M601 190.8c50.9 50.9 42.9 100.7 7.2 136.4-35.7 35.7-85.4 43.7-136.4-7.2s-68.5-197.7-68.5-197.7S550 139.8 601 190.8z" fill="#60C13D" /><path d="M545.4 366c-27.6 0-54.8-13.1-80.7-39-52.8-52.8-70.7-197.4-71.4-203.6-0.4-3 0.7-6.1 2.9-8.3 2.2-2.2 5.2-3.2 8.3-2.9 6.1 0.7 150.8 18.6 203.6 71.4 26 26 39.1 53.3 39 81-0.1 24.8-11.1 48.8-31.8 69.5-20.7 20.7-44.7 31.7-69.5 31.8-0.1 0.1-0.3 0.1-0.4 0.1zM415 134c5.6 36.4 24.5 139.5 63.8 178.9 22 22 44.4 33.2 66.5 33.2h0.3c19.4-0.1 38.6-9.1 55.4-25.9 16.9-16.9 25.8-36 25.9-55.4 0.1-22.2-11.1-44.7-33.2-66.8-19.5-19.5-58.7-37.1-113.3-50.7-26.6-6.9-51.1-11.1-65.4-13.3z" fill="" /><path d="M608.2 337.1c-2.6 0-5.1-1-7.1-2.9l-78.6-78.6c-3.9-3.9-3.9-10.2 0-14.1 3.9-3.9 10.2-3.9 14.1 0l78.6 78.6c3.9 3.9 3.9 10.2 0 14.1-1.9 2-4.4 2.9-7 2.9z" fill="" /><path d="M583.1 501.4c-50.9-50.9-100.7-42.9-136.4-7.2S403 579.6 454 630.5c50.9 50.9 197.7 68.5 197.7 68.5S634 552.4 583.1 501.4z" fill="#60C13D" /><path d="M651.6 709.1c-0.4 0-0.8 0-1.2-0.1-6.1-0.7-150.8-18.6-203.6-71.4-26-26-39.1-53.3-39-81 0.1-24.8 11.1-48.8 31.8-69.5 20.7-20.7 44.7-31.7 69.5-31.8 27.8-0.1 55 13 81 39 52.8 52.8 70.7 197.4 71.4 203.6 0.4 3-0.7 6.1-2.9 8.3-1.8 1.9-4.3 2.9-7 2.9zM509.5 475.3h-0.3c-19.4 0.1-38.6 9.1-55.4 25.9-16.9 16.9-25.8 36-25.9 55.4-0.1 22.2 11.1 44.7 33.2 66.8 39.3 39.3 142.4 58.2 178.8 63.8-5.6-36.4-24.5-139.5-63.8-178.8-22.1-21.9-44.5-33.1-66.6-33.1z" fill="" /><path d="M525.3 582.8c-2.6 0-5.1-1-7.1-2.9l-78.6-78.6c-3.9-3.9-3.9-10.2 0-14.1 3.9-3.9 10.2-3.9 14.1 0l78.6 78.6c3.9 3.9 3.9 10.2 0 14.1-1.8 1.9-4.4 2.9-7 2.9z" fill="" /><path d="M939.3 145.2c-50.9-50.9-100.7-42.9-136.4-7.2-35.7 35.7-43.7 85.4 7.2 136.4 50.9 50.9 197.7 68.5 197.7 68.5s-17.5-146.8-68.5-197.7z" fill="#60C13D" /><path d="M1007.9 352.9c-0.4 0-0.8 0-1.2-0.1-6.1-0.7-150.8-18.6-203.6-71.4-26-26-39.1-53.3-39-81 0.1-24.8 11.1-48.8 31.8-69.5 20.7-20.7 44.7-31.7 69.5-31.8h0.4c27.6 0 54.8 13.1 80.7 39 52.8 52.8 70.7 197.4 71.4 203.6 0.4 3-0.7 6.1-2.9 8.3-1.9 1.8-4.5 2.9-7.1 2.9zM865.7 119.1h-0.3c-19.4 0.1-38.6 9.1-55.4 25.9-16.9 16.9-25.8 36-25.9 55.4-0.1 22.2 11.1 44.7 33.2 66.8 19.5 19.5 58.7 37.1 113.3 50.7 26.8 6.7 51.3 10.9 65.5 13.1-5.6-36.4-24.5-139.5-63.8-178.9-22.1-21.9-44.4-33-66.6-33z" fill="" /><path d="M881.6 226.6c-2.6 0-5.1-1-7.1-2.9L795.9 145c-3.9-3.9-3.9-10.2 0-14.1 3.9-3.9 10.2-3.9 14.1 0l78.6 78.6c3.9 3.9 3.9 10.2 0 14.1-1.9 2-4.5 3-7 3z" fill="" /></svg>