<?xml version="1.0" encoding="utf-8"?>
<!-- Uploaded to: SVG Repo, www.svgrepo.com, Generator: SVG Repo Mixer Tools -->
<svg width="800px" height="800px" viewBox="0 0 1024 1024" class="icon"  version="1.1" xmlns="http://www.w3.org/2000/svg"><path d="M216.251077 505.949909L23.530093 827.927654l122.448203 56.690942 124.705963-353.727495zM807.748923 490.075034l192.720984 321.977744-122.448203 56.690943-124.705963-353.727495z" fill="#E5E5E5" /><path d="M772.330313 642.791332m-86.429875 0a86.429876 86.429876 0 1 0 172.859751 0 86.429876 86.429876 0 1 0-172.859751 0Z" fill="#FAE1DC" /><path d="M248.000827 642.791332m-86.429876 0a86.429876 86.429876 0 1 0 172.859751 0 86.429876 86.429876 0 1 0-172.859751 0Z" fill="#FAE1DC" /><path d="M517.767871 617.99125m-289.804664 0a289.804665 289.804665 0 1 0 579.609329 0 289.804665 289.804665 0 1 0-579.609329 0Z" fill="#FAE1DC" /><path d="M331.820167 350.658353m-230.115134 0a230.115134 230.115134 0 1 0 460.230269 0 230.115134 230.115134 0 1 0-460.230269 0Z" fill="#E5E5E5" /><path d="M703.680298 346.354498m-230.115135 0a230.115134 230.115134 0 1 0 460.230269 0 230.115134 230.115134 0 1 0-460.230269 0Z" fill="#E5E5E5" /><path d="M414.475351 775.893341a109.642471 51.681538 0 1 0 219.284941 0 109.642471 51.681538 0 1 0-219.284941 0Z" fill="#ECA78C" /><path d="M693.379268 764.392876h-331.749613c-0.388053 0-0.70555-0.317498-0.70555-0.70555v-44.555483c0-0.388053 0.317498-0.70555 0.70555-0.70555h331.749613c0.388053 0 0.70555 0.317498 0.70555 0.70555v44.555483c0 0.388053-0.317498 0.70555-0.70555 0.70555z" fill="#00263A" /></svg>